<svg width="16" height="16" viewBox="0 0 16 16" fill="none" xmlns="http://www.w3.org/2000/svg">
<path fill-rule="evenodd" clip-rule="evenodd" d="M12.1088 1.96944C14.929 4.6455 15.1035 9.08131 12.5023 11.9707L15.7372 15.1948C15.8797 15.3423 15.8776 15.5768 15.7326 15.7219C15.5876 15.8669 15.3531 15.8689 15.2055 15.7264L11.9707 12.5023C9.08131 15.1035 4.6455 14.929 1.96944 12.1088C-0.706621 9.28859 -0.648425 4.84973 2.10065 2.10065C4.84973 -0.648425 9.28859 -0.706621 12.1088 1.96944ZM0.807486 7.20027C0.807486 10.7303 3.66917 13.592 7.19924 13.592C10.7276 13.5879 13.5868 10.7286 13.591 7.20027C13.591 3.6702 10.7293 0.808519 7.19924 0.808519C3.66917 0.808519 0.807486 3.6702 0.807486 7.20027Z" fill="#333333"/>
</svg>
